<?xml version="1.0" encoding="UTF-8"?>
<svg width="48" height="48" viewBox="0 0 24 24" fill="none" xmlns="http://www.w3.org/2000/svg">
<path d="M12.5 21.2832C17.471 21.2832 21.5 17.2532 21.5 12.2832C21.5 7.3122 17.471 3.2832 12.5 3.2832C7.529 3.2832 3.5 7.3122 3.5 12.2832C3.5 17.2532 7.529 21.2832 12.5 21.2832Z" stroke="#2AA9E1" stroke-width="1.5" stroke-linecap="round" stroke-linejoin="round"></path>
<path fill-rule="evenodd" clip-rule="evenodd" d="M16.63 12.2823C16.63 14.5623 14.782 16.4103 12.502 16.4103C10.222 16.4103 8.37305 14.5623 8.37305 12.2823C8.37305 10.0023 10.222 8.1543 12.502 8.1543C14.782 8.1543 16.63 10.0023 16.63 12.2823Z" stroke="#2AA9E1" stroke-width="1.5" stroke-linecap="round" stroke-linejoin="round"></path>
<path opacity="0.4" d="M9.58472 15.1973L6.13672 18.6453" stroke="#2AA9E1" stroke-width="1.5" stroke-linecap="round" stroke-linejoin="round"></path>
<path opacity="0.4" d="M15.4199 15.2012L18.8659 18.6472" stroke="#2AA9E1" stroke-width="1.5" stroke-linecap="round" stroke-linejoin="round"></path>
<path opacity="0.4" d="M6.13672 5.91992L9.58374 9.36691" stroke="#2AA9E1" stroke-width="1.5" stroke-linecap="round" stroke-linejoin="round"></path>
<path opacity="0.4" d="M15.4199 9.36493L18.8649 5.91992" stroke="#2AA9E1" stroke-width="1.5" stroke-linecap="round" stroke-linejoin="round"></path>
</svg>